<?xml version="1.0" standalone="no"?>
<!DOCTYPE svg PUBLIC "-//W3C//DTD SVG 20010904//EN"
 "http://www.w3.org/TR/2001/REC-SVG-20010904/DTD/svg10.dtd">
<svg version="1.0" xmlns="http://www.w3.org/2000/svg"
 width="854.000000pt" height="1390.000000pt" viewBox="0 0 854.000000 1390.000000"
 preserveAspectRatio="xMidYMid meet">

<g transform="translate(0.000000,1390.000000) scale(0.100000,-0.100000)"
fill="#000000" stroke="none">
<path d="M0 450 l0 -450 4270 0 4270 0 0 450 0 450 -4270 0 -4270 0 0 -450z
m780 50 l0 -200 -35 0 -35 0 0 200 0 200 35 0 35 0 0 -200z m-115 105 c24 -23
25 -30 25 -149 0 -68 3 -131 6 -140 5 -13 -1 -16 -30 -16 -27 0 -36 4 -36 17
0 15 -2 14 -20 -2 -22 -20 -63 -23 -85 -5 -8 6 -17 28 -21 47 -9 50 15 94 70
129 38 23 46 34 44 54 -4 31 -32 33 -36 3 -3 -19 -10 -23 -38 -23 -31 0 -34 2
-34 30 0 46 39 80 90 80 30 0 47 -6 65 -25z m273 19 c41 -11 52 -51 52 -194
l0 -130 -29 0 c-16 0 -31 6 -34 13 -4 10 -7 10 -18 0 -18 -18 -74 -16 -93 3
-21 20 -21 93 -1 122 9 12 36 36 61 53 34 23 44 36 42 52 -4 29 -30 28 -43 0
-7 -17 -18 -23 -44 -23 -32 0 -33 1 -27 33 11 59 66 89 134 71z m234 -13 c12
-19 12 -19 36 0 30 23 55 24 76 3 13 -13 16 -42 16 -165 l0 -149 -30 0 -30 0
0 113 c0 123 -6 157 -25 157 -21 0 -25 -25 -25 -151 l0 -119 -35 0 -34 0 -3
133 c-3 109 -6 132 -18 132 -12 0 -15 -23 -18 -132 l-3 -133 -34 0 -35 0 0
160 0 160 35 0 c21 0 35 -5 35 -12 0 -8 6 -6 17 5 23 23 60 22 75 -2z m220
-121 c3 -121 4 -125 26 -128 22 -3 22 -3 22 127 0 80 4 131 10 132 59 7 55 20
58 -166 2 -94 0 -184 -3 -201 -7 -39 -38 -54 -110 -54 -54 0 -55 0 -55 30 0
27 3 30 34 30 49 0 66 9 66 35 0 23 -1 23 -30 9 -36 -18 -66 -6 -80 32 -6 14
-10 83 -10 154 l0 129 28 3 c15 2 30 1 34 -2 4 -3 9 -62 10 -130z m5343 90 c0
-27 -4 -50 -10 -50 -5 0 -10 23 -10 50 0 28 5 50 10 50 6 0 10 -22 10 -50z
m470 0 c0 -27 -4 -50 -10 -50 -5 0 -10 23 -10 50 0 28 5 50 10 50 6 0 10 -22
10 -50z m93 38 c7 -7 12 -24 12 -38 0 -34 -17 -50 -52 -50 -27 0 -28 2 -28 50
0 48 1 50 28 50 15 0 33 -5 40 -12z m160 -14 c2 -11 -4 -27 -13 -34 -21 -17
-19 -28 8 -33 16 -3 13 -5 -10 -6 -38 -1 -41 8 -13 34 27 25 27 59 0 52 -11
-3 -17 -1 -14 4 10 17 39 5 42 -17z m100 14 c7 -7 12 -24 12 -38 0 -34 -17
-50 -52 -50 -27 0 -28 2 -28 50 0 48 1 50 28 50 15 0 33 -5 40 -12z m52 -8 c0
-30 47 -28 53 3 2 12 4 -3 4 -33 0 -30 -2 -43 -4 -27 -3 21 -10 27 -29 27 -19
0 -24 -5 -24 -25 0 -14 -4 -25 -10 -25 -5 0 -10 23 -10 50 0 28 5 50 10 50 6
0 10 -9 10 -20z m128 -6 c2 -11 -4 -27 -13 -34 -21 -17 -19 -28 8 -33 16 -3
13 -5 -10 -6 -38 -1 -41 8 -13 34 27 25 27 59 0 52 -11 -3 -17 -1 -14 4 10 17
39 5 42 -17z m90 19 c-14 -3 -18 -15 -18 -49 0 -24 -4 -44 -10 -44 -5 0 -10
20 -10 44 0 34 -4 46 -17 49 -10 3 2 5 27 5 25 0 37 -2 28 -5z m92 -1 c0 -5
-10 -8 -21 -8 -51 2 -49 -61 2 -75 l24 -7 -25 -1 c-15 -1 -31 4 -38 11 -18 18
-15 65 6 77 21 13 52 14 52 3z m64 -34 l25 -42 4 45 4 44 1 -52 c1 -29 -1 -53
-6 -53 -4 0 -16 16 -26 35 -11 19 -22 35 -26 35 -3 0 -5 -16 -4 -35 2 -19 -1
-35 -6 -35 -6 0 -10 23 -10 50 0 28 4 50 9 50 6 0 21 -19 35 -42z m-1117 -23
l1 -40 -6 35 c-4 22 -13 35 -22 35 -9 0 -17 -13 -21 -35 l-6 -35 -2 38 c-1 25
-6 37 -16 37 -16 0 -31 -43 -20 -59 3 -6 1 -11 -4 -11 -6 0 -11 17 -11 38 l0
39 53 -1 52 -1 2 -40z m77 29 c3 -9 6 -26 6 -38 0 -19 -5 -23 -27 -22 -35 1
-45 35 -14 43 26 7 27 20 4 26 -14 4 -13 5 3 6 12 0 25 -6 28 -15z m84 -41
c-3 -54 -5 -58 -28 -60 -25 -3 -25 -3 -2 7 12 5 22 15 22 23 0 8 -10 13 -22
13 -17 -1 -24 5 -26 22 -5 36 5 52 33 52 25 0 26 -2 23 -57z m90 35 c3 -14 -3
-18 -23 -18 -33 0 -29 -22 6 -31 21 -6 21 -7 4 -8 -12 -1 -26 4 -33 11 -13 13
-16 51 -5 62 13 13 48 1 51 -16z m232 12 c0 -5 -4 -10 -10 -10 -5 0 -10 5 -10
10 0 6 5 10 10 10 6 0 10 -4 10 -10z m0 -60 c0 -5 -4 -10 -10 -10 -5 0 -10 5
-10 10 0 6 5 10 10 10 6 0 10 -4 10 -10z m-50 -190 c0 -47 -3 -60 -15 -60 -12
0 -15 13 -15 60 0 47 3 60 15 60 12 0 15 -13 15 -60z m-580 10 c0 -11 5 -20
10 -20 6 0 10 9 10 21 0 29 32 21 41 -11 l6 -25 8 28 c7 28 25 38 25 13 0 -27
-22 -76 -35 -76 -7 0 -16 15 -20 33 l-8 32 -6 -30 c-9 -44 -33 -37 -47 13 -11
35 -11 42 2 42 8 0 14 -9 14 -20z m140 0 c0 -11 5 -20 10 -20 6 0 10 9 10 21
0 29 32 21 41 -11 l6 -25 8 28 c7 28 25 38 25 13 0 -27 -22 -76 -35 -76 -7 0
-16 15 -20 33 l-8 32 -6 -30 c-10 -48 -36 -43 -48 10 -8 36 -8 45 3 45 8 0 14
-9 14 -20z m140 0 c0 -11 5 -20 10 -20 6 0 10 9 10 21 0 29 32 21 41 -11 l6
-25 8 28 c7 28 25 38 25 13 0 -27 -22 -76 -35 -76 -7 0 -16 15 -20 33 l-8 32
-6 -30 c-9 -44 -33 -37 -47 13 -11 35 -11 42 2 42 8 0 14 -9 14 -20z m235 10
c4 -6 8 -26 11 -44 4 -32 3 -33 -34 -32 -32 1 -37 4 -37 26 0 17 7 26 25 31
24 7 24 7 3 8 -13 1 -23 6 -23 11 0 13 47 13 55 0z m154 -11 c16 -44 7 -63
-30 -64 -30 0 -34 3 -34 25 0 17 7 26 25 31 24 7 24 7 3 8 -32 1 -29 21 2 21
17 0 28 -7 34 -21z m161 1 c5 -9 7 -25 5 -36 -2 -10 -4 -22 -4 -26 -1 -5 -5
-8 -11 -8 -5 0 -10 16 -10 36 0 45 -24 42 -28 -4 -2 -18 -7 -32 -12 -32 -5 0
-10 14 -12 32 -4 46 -28 49 -28 4 0 -25 -4 -36 -15 -36 -11 0 -15 12 -15 44
l0 43 60 0 c47 0 63 -4 70 -17z m55 -7 l8 -28 10 28 c6 15 17 27 25 27 10 0
12 -6 7 -17 -4 -10 -14 -37 -22 -60 -15 -43 -39 -61 -57 -43 -7 7 -5 10 7 10
21 0 22 26 2 74 -13 30 -13 36 -1 36 8 0 17 -12 21 -27z m175 18 c0 -5 -9 -11
-20 -14 -11 -3 -20 -13 -20 -22 0 -9 9 -19 20 -22 25 -7 26 -23 2 -23 -24 0
-42 19 -42 45 0 12 5 26 12 33 14 14 48 16 48 3z m90 -5 c28 -35 -11 -93 -47
-70 -36 22 -23 84 17 84 10 0 23 -7 30 -14z m160 -6 c5 -9 7 -25 5 -36 -2 -10
-4 -22 -4 -26 -1 -5 -5 -8 -11 -8 -5 0 -10 16 -10 36 0 45 -24 42 -28 -4 -2
-18 -7 -32 -12 -32 -5 0 -10 14 -12 32 -4 46 -28 49 -28 4 0 -25 -4 -36 -15
-36 -11 0 -15 12 -15 44 l0 43 60 0 c47 0 63 -4 70 -17z m-889 -63 c-13 -13
-26 -3 -16 12 3 6 11 8 17 5 6 -4 6 -10 -1 -17z m550 0 c-13 -13 -26 -3 -16
12 3 6 11 8 17 5 6 -4 6 -10 -1 -17z"/>
<path d="M592 427 c-26 -27 -28 -55 -7 -63 24 -9 42 12 43 51 2 41 -6 44 -36
12z"/>
<path d="M893 438 c-30 -32 -31 -78 -3 -78 25 0 32 17 28 65 l-3 37 -22 -24z"/>
<path d="M7250 580 c0 -33 3 -41 16 -38 9 2 22 11 28 21 13 20 -2 50 -28 55
-13 3 -16 -5 -16 -38z"/>
<path d="M7510 580 c0 -33 3 -41 16 -38 26 5 41 35 28 56 -6 9 -19 18 -28 20
-13 3 -16 -5 -16 -38z"/>
<path d="M6900 555 c0 -8 7 -15 15 -15 8 0 15 7 15 15 0 8 -7 15 -15 15 -8 0
-15 -7 -15 -15z"/>
<path d="M6984 586 c-8 -22 3 -49 19 -43 6 2 12 14 12 27 0 27 -22 39 -31 16z"/>
<path d="M7075 590 c-3 -5 3 -10 15 -10 12 0 18 5 15 10 -3 6 -10 10 -15 10
-5 0 -12 -4 -15 -10z"/>
<path d="M7197 333 c-12 -11 -8 -23 8 -23 8 0 15 7 15 15 0 16 -12 20 -23 8z"/>
<path d="M7347 333 c-12 -11 -8 -23 8 -23 8 0 15 7 15 15 0 16 -12 20 -23 8z"/>
<path d="M7823 344 c-8 -21 13 -42 28 -27 13 13 5 43 -11 43 -6 0 -13 -7 -17
-16z"/>
</g>
</svg>
