<?xml version="1.0" standalone="no"?>
<!DOCTYPE svg PUBLIC "-//W3C//DTD SVG 20010904//EN"
 "http://www.w3.org/TR/2001/REC-SVG-20010904/DTD/svg10.dtd">
<svg version="1.0" xmlns="http://www.w3.org/2000/svg"
 width="576.000000pt" height="434.000000pt" viewBox="0 0 576.000000 434.000000"
 preserveAspectRatio="xMidYMid meet">
<metadata>
Created by potrace 1.16, written by Peter Selinger 2001-2019
</metadata>
<g transform="translate(0.000000,434.000000) scale(0.100000,-0.100000)"
fill="#000000" stroke="none">
<path d="M2509 4045 c-32 -17 -48 -54 -51 -120 -2 -41 -10 -62 -45 -112 -50
-72 -97 -175 -119 -265 -39 -159 -54 -198 -74 -198 -23 0 -23 -4 -21 -108 1
-94 21 -132 67 -132 18 0 41 -3 51 -6 17 -5 17 -5 0 9 -13 11 -16 22 -11 42 5
20 9 23 15 13 7 -10 9 -10 10 2 0 8 5 1 10 -15 8 -30 9 -30 81 -30 40 0 108
-4 151 -9 l77 -8 0 35 c0 28 5 37 23 43 12 5 26 7 31 6 5 -2 6 3 3 10 -3 10 5
12 34 10 25 -3 44 1 54 11 18 18 6 30 -15 16 -22 -13 -50 -11 -47 4 1 6 -4 11
-11 9 -9 -2 -9 5 3 28 16 30 9 40 -12 19 -9 -9 -11 -4 -8 21 3 18 0 40 -5 49
-8 13 -9 13 -10 -6 0 -12 -5 -25 -12 -29 -8 -5 -9 2 -5 23 6 28 4 30 -20 25
-22 -4 -25 -2 -19 13 5 15 4 16 -9 5 -15 -12 -16 -8 -13 36 3 42 6 49 26 52
13 2 30 -2 39 -10 15 -11 16 -11 10 5 -4 10 -7 21 -7 23 0 9 -57 3 -67 -7 -8
-8 -11 -2 -9 22 2 19 4 37 5 41 1 6 61 -20 71 -31 3 -3 19 -8 35 -9 17 -2 31
-7 33 -12 5 -14 132 15 132 30 0 6 -11 5 -26 0 -74 -29 -190 2 -279 74 -22 18
-47 36 -55 41 -13 8 -13 7 0 -10 14 -17 13 -17 -10 -11 -24 6 -24 6 3 -9 15
-9 25 -20 22 -25 -4 -6 7 -10 23 -10 l29 0 6 -117 c3 -69 1 -122 -4 -128 -12
-12 -313 -14 -325 -2 -9 8 51 256 71 297 7 14 20 43 30 65 29 68 106 178 117
167 7 -7 20 -7 39 0 24 8 27 13 19 28 -15 28 -12 43 8 38 13 -4 22 3 32 25 7
16 21 32 31 34 34 9 22 41 -18 52 -48 14 -52 13 -84 -4z"/>
<path d="M3863 3750 c-116 -67 -169 -229 -113 -345 37 -77 118 -118 195 -97
163 44 256 231 186 376 -33 67 -80 96 -156 96 -48 0 -70 -6 -112 -30z"/>
<path d="M2913 3517 c-23 -12 -37 -56 -22 -71 15 -16 10 -26 -13 -26 -13 0
-36 -7 -52 -15 -28 -15 -28 -14 -22 9 4 16 1 26 -9 30 -8 3 -15 14 -15 25 0
14 -5 19 -15 14 -9 -3 -22 2 -29 12 -12 17 -14 15 -29 -15 -19 -36 -23 -56 -6
-27 12 20 40 22 57 5 7 -7 12 -37 12 -68 0 -43 5 -61 20 -78 27 -29 30 -28 24
11 -6 38 10 62 49 71 24 6 28 3 33 -23 6 -26 9 -29 25 -20 16 8 17 14 9 30 -6
11 -10 41 -8 67 3 43 5 47 31 50 17 2 29 -2 33 -11 10 -28 11 -72 1 -100 -8
-23 -6 -32 7 -45 16 -16 17 -15 15 13 -4 56 1 77 19 82 10 2 26 17 35 32 l16
27 -36 0 c-22 0 -38 6 -44 17 -11 19 -52 21 -86 4z"/>
<path d="M3426 3496 c3 -9 -3 -17 -18 -21 -13 -4 -34 -17 -46 -29 -28 -25 -65
-102 -58 -119 3 -8 5 -8 5 1 1 7 6 10 11 7 16 -10 12 -46 -7 -69 -18 -21 -18
-21 4 -3 30 26 36 7 8 -25 -20 -24 -24 -25 -29 -10 -3 9 -4 0 -3 -20 2 -21 -1
-38 -5 -38 -4 0 -8 -9 -8 -20 0 -11 5 -20 10 -20 6 0 10 7 10 15 0 13 10 36
28 64 6 11 88 8 94 -2 5 -8 8 -6 8 5 0 9 -5 20 -11 23 -6 4 -8 13 -5 21 3 7 0
11 -7 8 -17 -6 -47 51 -53 100 -5 35 -2 43 16 54 12 7 31 10 42 6 14 -4 17 -9
9 -14 -19 -11 22 -81 77 -132 57 -54 122 -92 180 -108 43 -11 44 -12 40 -48
-3 -20 -18 -137 -33 -260 -20 -153 -26 -225 -19 -230 6 -4 17 -56 24 -117 14
-126 49 -301 80 -405 18 -62 25 -73 51 -82 18 -6 31 -19 35 -34 11 -44 116
-45 134 -1 5 12 14 136 20 276 l12 253 37 37 c29 29 45 60 70 137 56 166 54
338 -4 454 -26 52 -41 67 -109 106 -44 25 -60 28 -135 29 -47 0 -93 -3 -101
-6 -8 -3 -12 -4 -7 -2 18 11 3 21 -38 25 -73 9 -150 53 -230 134 -75 75 -89
86 -79 60z"/>
<path d="M840 3477 c-31 -11 -59 -31 -74 -50 -28 -39 -39 -77 -23 -82 110 -33
200 -102 243 -187 l24 -48 38 15 c50 22 81 52 104 103 68 150 -138 314 -312
249z"/>
<path d="M3085 3373 c-3 -13 -7 -34 -10 -48 -4 -19 -1 -27 12 -31 10 -4 34
-13 53 -22 35 -16 35 -16 10 -22 -21 -6 -23 -8 -7 -15 9 -4 17 -12 17 -18 0
-7 -4 -7 -12 1 -15 15 -84 16 -93 2 -4 -6 -11 -8 -16 -5 -5 4 -9 2 -9 -3 0
-22 -27 -18 -59 9 l-34 28 36 21 c41 24 57 51 25 42 -11 -3 -24 1 -29 9 -8 11
-12 10 -25 -6 -8 -11 -21 -20 -30 -20 -24 0 -35 -27 -16 -41 14 -10 14 -12 -5
-18 -12 -4 -26 -21 -32 -38 -9 -26 -13 -29 -26 -18 -17 14 -22 12 -25 -10 -5
-31 0 -51 10 -45 6 4 17 1 25 -5 13 -10 15 -8 15 17 0 38 26 73 54 73 28 0 46
-18 46 -47 0 -13 5 -23 10 -23 6 0 10 -7 10 -15 0 -8 5 -15 10 -15 6 0 10 5
10 10 0 6 9 10 19 10 15 0 21 10 26 40 5 31 12 41 30 46 25 6 65 -10 65 -27 0
-6 5 -7 10 -4 6 3 10 -3 10 -13 0 -11 7 -25 16 -32 13 -11 16 -10 21 9 4 15
13 22 27 20 63 -4 69 8 36 76 -10 22 -16 44 -13 48 3 5 -3 4 -14 -1 -20 -11
-103 5 -103 20 0 5 9 16 20 25 11 10 20 21 20 26 0 16 -25 32 -53 32 -21 1
-29 -5 -32 -22z"/>
<path d="M601 3268 c-24 -13 -58 -42 -75 -66 -27 -39 -31 -51 -30 -111 1 -75
25 -125 84 -175 33 -27 102 -66 118 -66 4 0 16 24 25 54 31 96 121 177 216
192 23 4 41 11 41 17 0 25 -47 81 -94 110 -109 70 -207 85 -285 45z"/>
<path d="M905 3016 c-51 -20 -95 -50 -101 -68 -3 -10 -9 -18 -14 -18 -14 0
-40 -78 -40 -121 0 -72 20 -127 66 -178 42 -46 132 -102 186 -115 37 -8 27
-38 -21 -59 l-38 -17 -1 -167 c-1 -93 -4 -182 -8 -199 -6 -29 -3 -32 41 -53
39 -18 50 -31 72 -77 14 -30 27 -82 30 -116 7 -67 0 -78 -53 -78 -31 0 -32 -1
-24 -36 10 -45 11 -46 86 -72 85 -30 118 -28 257 15 17 5 18 -2 15 -100 -2
-58 -6 -103 -10 -100 -5 2 -8 -8 -8 -23 0 -24 2 -26 13 -12 6 8 35 21 62 28
70 19 88 33 92 76 2 21 8 44 12 52 11 20 23 -41 13 -68 -14 -37 -2 -90 24
-106 21 -14 27 -14 69 5 64 28 79 67 72 187 -7 118 -33 181 -96 232 -53 44
-97 60 -165 63 -38 2 -51 -1 -62 -16 -12 -17 -14 -12 -15 46 0 35 -2 81 -5
102 -2 21 0 36 5 33 4 -3 31 -21 60 -40 114 -77 237 -48 257 61 8 45 -3 56
-43 41 -26 -10 -38 -9 -73 7 -52 24 -91 71 -150 183 -25 48 -52 87 -60 88 -48
3 -98 34 -55 34 8 0 15 5 15 11 0 7 -11 8 -30 4 -27 -6 -30 -4 -30 18 0 29
-34 47 -93 48 l-42 0 32 16 c31 16 35 15 80 -5 40 -19 55 -21 93 -13 l45 9
-45 1 c-25 1 -54 8 -64 16 -11 8 -31 15 -44 15 l-24 0 22 28 c44 57 70 98 73
117 2 11 7 28 11 37 4 9 3 26 -3 37 -7 11 -9 32 -5 46 6 25 -29 114 -47 116
-5 1 -12 2 -16 3 -9 1 -75 47 -83 56 -3 4 -27 14 -54 23 -56 19 -137 20 -181
3z"/>
<path d="M2145 2751 c-55 -25 -117 -87 -141 -141 -14 -33 -19 -67 -19 -131 0
-48 -2 -86 -4 -83 -2 2 -10 25 -18 51 l-13 48 6 -48 c3 -26 14 -67 24 -90 27
-60 106 -139 162 -162 27 -11 48 -23 48 -26 0 -3 -33 -12 -72 -19 -40 -7 -83
-16 -95 -21 -37 -14 -53 -60 -55 -156 -2 -90 6 -117 43 -159 15 -16 19 -38 20
-102 l2 -82 36 -9 c20 -5 68 -14 106 -21 183 -30 175 -27 198 -78 28 -62 30
-176 3 -216 -17 -27 -20 -28 -83 -21 l-65 7 7 -54 c4 -29 8 -54 9 -55 1 -2 52
-10 114 -19 102 -15 113 -15 143 0 18 9 34 16 36 16 1 0 3 -25 3 -55 l0 -55
-40 0 c-36 0 -40 -2 -40 -25 0 -21 5 -25 33 -25 17 0 41 -7 51 -15 27 -21 79
-19 107 4 27 22 31 49 33 202 1 104 1 106 -29 137 -16 18 -31 44 -32 59 -3 36
-10 53 -24 53 -17 0 -1 -113 18 -123 11 -7 12 -11 2 -24 -7 -8 -15 -24 -16
-36 -5 -29 -5 -29 -35 -4 -25 21 -27 28 -34 150 -5 93 -3 127 5 127 6 0 16
-10 21 -22 8 -21 9 -20 9 10 1 23 -4 32 -15 32 -12 0 -14 9 -12 40 2 22 7 40
12 39 16 -2 26 25 26 69 0 24 4 42 9 40 5 -1 27 -27 50 -55 23 -29 55 -60 72
-68 37 -19 85 -12 102 16 11 18 13 17 44 -13 22 -21 38 -29 52 -25 19 5 21 1
21 -37 0 -65 -18 -199 -45 -331 -14 -66 -25 -131 -25 -146 0 -42 38 -67 136
-89 126 -28 124 -28 124 24 l0 43 -63 6 c-34 3 -70 9 -80 13 -38 14 -64 138
-47 220 17 82 27 88 134 80 50 -3 158 -9 240 -12 l148 -7 19 -31 19 -31 0 45
c0 51 25 215 38 251 9 22 12 18 45 -48 51 -100 96 -126 147 -85 18 14 22 29
23 82 2 56 -4 80 -43 175 -59 145 -126 233 -150 195 -8 -12 -11 -12 -27 2 -10
8 -44 28 -76 44 -48 23 -55 30 -40 36 13 6 10 7 -9 3 -15 -3 -39 0 -54 5 -27
11 -27 11 32 39 103 48 157 144 170 300 2 29 -3 59 -16 87 -10 24 -16 44 -13
44 5 0 -28 46 -67 94 -8 10 -33 30 -55 45 -36 23 -49 26 -131 26 l-91 0 -57
-43 c-31 -24 -61 -55 -67 -69 -7 -20 -13 -23 -21 -15 -7 7 -15 12 -20 12 -15
0 -38 -61 -44 -117 -15 -140 69 -304 182 -358 l38 -18 -49 -12 c-28 -7 -70
-16 -95 -20 -24 -4 -55 -14 -67 -22 -15 -10 -23 -11 -23 -4 0 22 -28 10 -58
-24 -17 -19 -41 -65 -53 -105 -18 -54 -27 -69 -39 -65 -12 5 -13 4 -2 -6 6 -7
12 -24 12 -39 0 -22 -3 -20 -29 20 -49 79 -131 239 -129 252 2 7 -3 12 -11 13
-8 0 -17 8 -20 18 -4 10 -11 18 -16 18 -6 0 -18 2 -28 5 -10 3 -24 1 -32 -6
-8 -7 -15 -7 -19 -1 -10 15 -151 91 -170 91 -29 0 -16 15 37 40 32 16 53 33
55 45 2 11 12 29 23 40 10 11 25 38 35 60 9 22 23 44 31 50 23 17 28 113 9
179 -23 77 -31 66 -10 -13 15 -60 12 -161 -4 -161 -4 0 -8 28 -8 63 -3 102
-68 210 -165 272 -52 33 -159 41 -214 16z"/>
<path d="M781 2543 c-1 -37 -5 -70 -9 -73 -10 -8 -12 -29 -16 -212 -4 -166 -4
-168 17 -168 12 -1 33 -7 47 -15 14 -8 39 -14 57 -15 31 0 32 1 38 54 4 29 3
114 -3 189 -11 154 -8 182 20 201 20 14 20 14 0 25 -12 6 -27 11 -35 11 -8 0
-34 16 -58 35 -24 19 -47 35 -50 35 -3 0 -7 -30 -8 -67z"/>
<path d="M4430 2583 c-36 -13 -66 -23 -67 -23 -4 0 -75 -74 -105 -108 -14 -18
-34 -57 -43 -87 -22 -70 -12 -129 43 -248 30 -64 48 -89 75 -106 68 -42 66
-46 -30 -77 -48 -16 -102 -39 -121 -51 -40 -28 -46 -28 -39 -3 7 28 -17 26
-58 -6 -24 -18 -54 -64 -101 -156 -58 -115 -65 -134 -59 -168 4 -21 13 -44 21
-51 20 -17 104 -2 131 24 25 23 35 19 38 -16 2 -12 8 -21 14 -20 22 5 8 -216
-26 -423 -16 -97 -16 -103 1 -129 10 -15 33 -33 51 -41 37 -15 180 -20 189 -6
3 5 8 30 11 58 l7 49 -65 0 c-37 0 -71 6 -80 13 -22 18 -41 106 -34 157 8 58
36 124 57 135 10 5 120 14 246 21 126 6 230 12 231 12 1 1 7 57 13 124 7 67
18 146 26 175 7 29 11 37 8 18 -2 -19 -7 -68 -11 -107 -6 -72 -6 -73 18 -73
32 1 63 19 89 53 32 41 29 113 -11 239 -32 101 -52 139 -73 137 -6 0 -6 -3 2
-6 6 -2 12 -19 12 -36 l0 -32 -26 33 c-26 33 -80 62 -118 62 -11 1 -32 7 -46
15 -24 13 -24 14 -5 21 70 25 89 35 77 43 -9 5 -5 12 14 22 49 26 113 108 130
166 17 57 15 146 -4 209 -14 44 -57 110 -87 131 -14 10 -35 26 -47 36 -11 9
-31 17 -43 17 -11 0 -25 4 -30 9 -21 20 -109 17 -175 -6z"/>
<path d="M3470 1119 l-15 -44 -94 -3 -93 -3 7 -47 c4 -26 9 -50 12 -54 2 -5
40 -8 83 -8 68 0 83 3 106 23 26 23 27 24 18 102 l-9 78 -15 -44z"/>
<path d="M3980 1055 c-16 -42 -40 -172 -40 -220 0 -23 -4 -45 -9 -50 -4 -6
-12 -23 -15 -40 -7 -28 -6 -29 7 -11 14 19 16 19 50 3 19 -9 53 -17 75 -17 23
0 44 -5 47 -10 9 -15 25 -2 25 20 0 21 -9 39 -89 170 -58 97 -63 120 -26 120
14 0 25 5 25 10 0 6 -4 10 -8 10 -5 0 -14 10 -19 23 -11 22 -11 22 -23 -8z"/>
<path d="M4718 1033 c-12 -11 -47 -20 -105 -27 l-88 -11 -3 -59 -3 -58 33 5
c18 3 59 9 91 13 75 8 107 33 106 82 0 20 -4 45 -7 55 -7 16 -8 16 -24 0z"/>
</g>
</svg>
