<?xml version="1.0" standalone="no"?>
<!DOCTYPE svg PUBLIC "-//W3C//DTD SVG 20010904//EN"
 "http://www.w3.org/TR/2001/REC-SVG-20010904/DTD/svg10.dtd">
<svg version="1.0" xmlns="http://www.w3.org/2000/svg"
 width="800.000000pt" height="430.000000pt" viewBox="0 0 800.000000 430.000000"
 preserveAspectRatio="xMidYMid meet">

<g transform="translate(0.000000,430.000000) scale(0.100000,-0.100000)"
fill="#000000" stroke="none">
<path d="M4045 4199 c-90 -7 -133 -19 -315 -91 -135 -54 -168 -71 -231 -124
-45 -38 -109 -116 -109 -134 0 -6 -18 -37 -39 -68 -155 -225 -555 -562 -733
-616 -10 -3 -18 -12 -18 -21 0 -8 8 -15 18 -15 18 0 134 -35 478 -146 l201
-65 -43 -110 c-23 -60 -46 -129 -50 -154 -3 -25 -10 -45 -14 -45 -10 0 -60
259 -60 310 0 45 -15 61 -24 26 -6 -24 8 -120 39 -264 8 -40 15 -76 15 -79 0
-3 -11 -2 -25 1 -32 8 -76 -14 -100 -51 -14 -21 -19 -48 -19 -113 -1 -80 1
-89 28 -124 34 -45 78 -66 138 -66 43 0 43 -1 68 -57 41 -95 96 -167 187 -245
120 -102 165 -133 334 -230 105 -59 157 -95 183 -126 20 -24 36 -49 36 -55 -1
-7 -18 -24 -39 -38 -20 -15 -45 -43 -55 -64 -17 -35 -17 -40 -2 -71 31 -66
197 -124 353 -124 170 0 360 38 434 87 49 32 81 98 82 165 1 66 -26 93 -85 83
-30 -5 -39 -3 -44 9 -10 25 25 145 62 211 37 69 68 101 106 110 25 6 132 -5
228 -25 25 -5 113 -21 195 -35 178 -31 466 -97 550 -126 33 -12 94 -33 135
-47 241 -82 401 -154 460 -208 115 -104 144 -322 65 -492 -31 -66 -112 -145
-183 -178 -63 -29 -78 -30 -92 -5 -21 40 -137 91 -208 91 -100 0 -169 -48
-212 -148 l-21 -49 -61 -7 c-34 -3 -141 -6 -238 -6 -135 0 -186 4 -213 15 -20
8 -59 15 -86 15 -50 0 -50 0 -56 38 -22 123 -64 185 -153 226 -91 40 -153 50
-226 36 -70 -14 -115 -43 -154 -103 l-27 -41 -5 90 c-3 49 -4 94 -2 100 2 7
24 15 50 19 87 13 427 36 737 50 66 3 174 10 240 15 66 6 162 13 213 17 65 4
92 10 92 19 0 21 -12 23 -95 13 -44 -5 -147 -13 -230 -19 -82 -6 -178 -13
-212 -15 -34 -3 -139 -10 -235 -15 -95 -6 -220 -13 -277 -17 l-103 -6 11 22
c10 19 8 26 -19 52 l-30 31 -323 -7 c-177 -3 -428 -12 -557 -20 -129 -8 -289
-17 -355 -20 -66 -3 -163 -12 -215 -20 -52 -7 -147 -19 -212 -25 -135 -13
-170 -21 -176 -40 -3 -9 2 -11 19 -6 13 4 96 15 185 26 88 10 176 21 195 24
19 3 126 10 239 16 113 5 238 13 278 16 l73 6 -7 -51 c-5 -41 -3 -57 15 -86
11 -20 21 -38 21 -40 0 -2 -14 -6 -31 -10 -25 -6 -36 -2 -57 18 -80 74 -245
110 -360 78 -60 -17 -116 -78 -166 -181 -23 -47 -44 -84 -48 -83 -14 4 -103
-38 -125 -59 -22 -20 -45 -74 -58 -131 -6 -29 -6 -29 -65 -22 -50 6 -61 4 -66
-9 -3 -9 -17 -16 -29 -16 -20 0 -25 8 -35 52 -26 122 -121 201 -241 201 -65 0
-61 -4 -78 89 -6 32 -17 70 -25 85 -43 83 -132 147 -244 176 -29 7 -53 17 -53
21 0 4 28 29 61 56 100 80 357 200 623 289 532 181 716 249 731 273 18 29 -1
31 -46 5 -24 -14 -81 -38 -128 -53 -47 -15 -146 -49 -220 -76 -74 -28 -234
-84 -355 -125 -308 -104 -558 -226 -670 -326 -39 -35 -60 -46 -97 -51 -122
-17 -184 -69 -249 -211 -42 -92 -43 -92 -89 -104 -96 -25 -154 -90 -169 -190
-7 -50 -2 -48 -92 -35 -45 6 -45 6 -63 -33 -15 -34 -16 -46 -6 -81 16 -50 42
-66 90 -52 53 15 60 13 60 -20 0 -70 37 -116 105 -130 24 -5 31 -13 42 -50 20
-71 33 -88 87 -115 34 -17 66 -25 103 -25 96 0 140 41 150 136 5 51 7 54 33
54 16 0 30 -7 34 -16 6 -15 9 -15 29 -1 23 15 34 15 133 -4 47 -9 52 -13 62
-47 15 -49 86 -117 137 -131 40 -11 106 -6 138 11 62 32 87 77 87 158 0 45 3
60 14 60 30 0 72 49 96 114 17 47 29 66 42 66 13 0 18 -8 18 -28 0 -15 7 -38
16 -51 15 -21 22 -23 65 -17 l49 7 6 -43 c9 -51 51 -98 88 -98 27 0 38 -16 51
-73 10 -48 100 -105 168 -106 76 -2 137 58 137 137 0 38 2 42 25 42 14 0 28
-7 32 -15 5 -14 8 -14 27 -1 19 12 33 12 87 2 77 -14 89 -21 89 -47 0 -32 77
-107 123 -120 78 -21 160 10 192 71 8 16 15 51 15 78 0 45 3 50 37 73 50 32
88 123 80 191 -6 51 -33 110 -67 146 -12 13 -20 25 -18 27 2 2 33 0 68 -5 36
-5 94 -10 130 -10 89 0 95 -6 71 -61 -12 -24 -21 -56 -21 -71 l0 -26 -50 13
c-48 13 -51 12 -65 -8 -20 -28 -19 -87 1 -116 16 -23 38 -24 86 -6 13 5 17 -2
23 -34 9 -53 38 -89 79 -97 30 -5 35 -11 45 -48 12 -48 40 -78 93 -101 99 -41
188 9 188 106 0 35 23 48 52 30 15 -9 23 -9 33 -1 10 8 32 10 67 5 66 -9 88
-20 88 -45 0 -29 66 -97 107 -111 104 -34 219 53 199 151 -4 25 0 31 30 49 72
43 97 176 49 260 -14 23 -25 45 -25 47 0 2 78 4 173 3 l173 -1 -28 -28 c-15
-15 -33 -49 -40 -75 l-13 -47 -47 6 -47 7 -7 -37 c-4 -20 -3 -49 3 -63 8 -23
14 -26 48 -24 41 3 55 -8 55 -43 0 -26 28 -53 66 -63 22 -5 30 -15 35 -40 14
-66 89 -111 163 -97 43 8 72 43 81 96 5 30 12 40 25 40 10 0 20 -6 23 -12 3
-10 8 -10 16 -2 17 15 101 6 124 -14 9 -8 17 -21 17 -28 0 -25 52 -74 91 -85
84 -26 173 35 167 114 -2 33 1 42 18 50 12 5 32 28 45 50 33 59 32 129 -3 189
-35 59 -68 79 -138 85 l-58 6 -6 41 c-4 22 -9 51 -13 64 -4 17 -1 22 13 22 61
1 181 94 230 178 34 58 64 171 64 242 0 77 -24 177 -54 231 -58 103 -180 177
-426 259 -63 21 -146 50 -185 65 -97 37 -386 108 -590 144 -93 17 -204 38
-245 45 -41 8 -101 18 -132 22 -32 3 -58 9 -58 11 0 8 60 85 85 110 74 73 148
192 174 281 l17 57 41 -3 c46 -4 104 21 140 60 77 82 88 286 18 332 -22 14
-24 22 -19 54 9 59 -32 295 -76 442 -25 82 -68 189 -110 275 -80 163 -134 226
-236 276 -38 19 -66 40 -70 52 -11 36 -140 152 -221 199 -95 55 -85 52 -251
87 -176 38 -173 37 -267 30z m270 -55 c93 -20 139 -36 203 -71 99 -53 218
-161 230 -206 6 -24 15 -33 38 -38 101 -21 189 -110 274 -280 64 -129 145
-364 160 -468 6 -36 15 -100 21 -141 6 -41 8 -92 4 -115 -5 -34 -13 -45 -55
-72 -27 -18 -51 -29 -53 -25 -3 4 -10 25 -17 47 -21 67 -106 228 -166 316 -31
46 -65 103 -75 126 -10 24 -20 43 -23 43 -3 0 -33 -20 -68 -44 -181 -126 -528
-265 -726 -291 -116 -16 -309 -21 -353 -10 -13 3 -103 9 -199 14 l-175 8 -185
61 c-102 34 -232 75 -290 91 -136 40 -180 55 -180 61 0 3 26 21 58 39 197 117
519 410 635 579 31 46 57 87 57 91 0 19 89 107 142 142 79 50 295 138 398 160
103 23 177 19 345 -17z m540 -953 c3 -10 33 -56 66 -102 69 -95 160 -276 185
-368 10 -33 21 -61 25 -61 5 0 23 16 41 36 18 20 48 43 67 51 48 20 68 0 76
-81 6 -52 3 -72 -16 -117 -40 -96 -79 -123 -178 -124 l-65 0 -2 -43 c-5 -88
-77 -202 -249 -392 -52 -58 -110 -131 -129 -162 -42 -69 -76 -174 -76 -234 0
-40 -3 -45 -43 -69 -89 -51 -252 -95 -350 -94 -34 0 -84 8 -112 18 -41 15 -51
23 -56 47 -20 96 -81 159 -236 243 -182 98 -274 164 -381 269 -93 93 -125 140
-166 244 l-14 37 -54 -6 c-45 -4 -59 -1 -88 19 -53 36 -71 81 -63 159 5 52 12
69 35 92 33 34 71 34 76 0 2 -14 8 -20 17 -17 8 4 15 -3 17 -18 6 -44 23 -23
30 37 14 127 57 272 96 325 19 25 20 25 163 22 79 -2 177 -8 217 -14 90 -13
301 -5 427 17 50 9 131 30 180 47 122 42 361 151 454 209 86 53 97 56 106 30z
m-127 -1698 c6 -88 -44 -146 -158 -181 -145 -45 -401 -54 -505 -17 -89 31
-132 55 -144 81 -15 33 -16 28 25 74 l36 40 33 -29 c99 -86 306 -77 524 23
121 56 120 55 156 53 28 -2 30 -5 33 -44z m-87 -323 c27 -15 24 -25 -18 -50
-26 -15 -65 -25 -128 -31 -49 -4 -123 -15 -164 -24 -40 -8 -148 -26 -239 -40
-91 -14 -180 -28 -198 -31 -29 -5 -35 -2 -58 32 -25 38 -32 77 -20 121 6 22 8
23 233 26 124 1 304 3 399 5 105 1 181 -2 193 -8z m-2476 -24 c103 -22 196
-81 230 -147 17 -32 45 -151 39 -161 -11 -18 -22 -4 -59 78 -40 90 -89 157
-134 186 -17 11 -52 18 -101 20 -69 2 -79 0 -133 -31 -59 -33 -156 -140 -157
-171 0 -8 -9 -32 -20 -53 -24 -45 -25 -63 -4 -71 9 -3 73 -6 144 -6 107 0 129
-3 134 -16 9 -24 7 -178 -4 -279 -15 -137 -14 -135 -58 -135 -30 0 -41 6 -57
30 -34 50 -74 74 -135 78 -67 4 -135 -26 -165 -75 -25 -40 -62 -43 -102 -9
-26 23 -28 29 -31 118 -4 108 8 175 29 169 8 -3 32 -6 54 -9 34 -3 45 1 69 24
23 24 27 35 23 69 -2 22 -8 51 -12 64 -8 23 -6 24 23 18 20 -4 34 -1 42 8 7 8
10 15 6 15 -12 0 45 133 80 186 69 104 153 132 299 100z m-41 -93 c3 -21 6
-79 6 -129 l0 -91 -37 -7 c-72 -11 -243 -7 -243 7 1 62 135 226 201 245 59 17
66 15 73 -25z m133 -11 c39 -46 89 -136 98 -179 l7 -33 -95 0 -96 0 -5 53
c-13 131 -16 189 -10 198 13 21 68 -1 101 -39z m1303 4 c119 -29 200 -99 220
-191 6 -28 13 -58 16 -68 4 -14 1 -18 -11 -15 -9 2 -26 28 -40 61 -25 62 -96
162 -127 178 -11 6 -47 12 -81 14 -79 6 -147 -25 -210 -94 -53 -59 -106 -176
-88 -194 8 -8 53 -12 134 -12 l122 0 0 -125 c0 -69 -4 -155 -8 -192 l-9 -68
-34 0 c-27 0 -41 8 -70 39 -47 53 -91 67 -160 52 -42 -10 -61 -21 -87 -52 -38
-44 -75 -51 -106 -20 -24 24 -34 104 -24 191 l8 65 56 -3 c52 -3 58 -1 78 25
23 28 24 54 5 112 -6 22 -5 23 19 17 30 -7 34 -3 63 80 22 63 66 135 102 167
49 45 135 57 232 33z m905 -140 l0 -149 -40 -14 c-45 -17 -247 -13 -370 7 -38
6 -106 16 -150 23 l-80 12 -6 46 c-4 25 -14 61 -24 78 -9 18 -15 34 -13 36 4
4 227 43 373 66 66 10 154 25 195 33 124 24 115 35 115 -138z m-951 53 c3 -17
6 -69 6 -114 l0 -82 -52 -7 c-67 -7 -193 -8 -200 0 -9 8 32 93 67 138 42 56
101 96 140 96 28 0 33 -4 39 -31z m118 -6 c42 -44 88 -132 88 -168 0 -25 -1
-25 -85 -25 l-85 0 0 38 c0 22 -3 73 -6 115 l-7 77 30 0 c20 0 39 -11 65 -37z
m1263 -12 c76 -37 112 -82 131 -159 16 -70 16 -72 4 -72 -5 0 -26 34 -46 76
-20 42 -55 96 -79 120 -39 41 -46 44 -96 45 -72 2 -77 1 -128 -24 -26 -13 -62
-44 -86 -74 -41 -53 -85 -157 -71 -171 4 -4 59 -6 121 -5 l114 2 7 -45 c6 -44
-10 -267 -22 -298 -11 -27 -60 -20 -83 13 -56 78 -194 79 -246 1 -23 -35 -52
-38 -86 -11 -19 15 -24 30 -27 85 -2 36 -1 86 2 110 l7 45 48 -6 c79 -9 106
34 80 127 -2 10 3 15 16 16 41 2 45 4 45 24 0 28 44 123 77 166 43 57 93 76
182 70 56 -3 89 -12 136 -35z m-113 -118 c3 -54 1 -103 -4 -109 -12 -16 -228
-19 -228 -4 0 19 42 94 77 136 37 46 84 73 124 74 l27 0 4 -97z m107 62 c37
-43 81 -126 81 -155 0 -18 -6 -20 -80 -20 l-80 0 0 44 c0 23 -3 71 -6 105 l-7
61 31 0 c22 0 38 -9 61 -35z m1155 -45 c55 -16 123 -83 137 -134 5 -22 12 -49
15 -58 3 -11 0 -18 -9 -18 -8 0 -18 12 -22 27 -9 38 -49 103 -86 141 -28 29
-37 32 -92 32 -98 0 -158 -46 -214 -163 -13 -26 -21 -52 -18 -58 4 -5 51 -9
105 -9 l99 0 6 -42 c6 -42 -10 -241 -21 -259 -11 -19 -47 -8 -78 25 -56 60
-136 60 -192 0 -37 -39 -56 -42 -84 -14 -16 16 -20 33 -20 93 0 97 7 119 31
107 26 -15 67 -2 86 26 12 19 13 30 4 55 -14 41 -15 39 14 39 14 0 25 6 25 14
0 23 68 151 92 173 48 43 125 51 222 23z m-4374 -45 c40 -20 42 -67 5 -91 -23
-15 -87 -15 -102 0 -9 8 8 46 34 76 29 35 26 34 63 15z m4304 -7 c3 -13 6 -56
6 -95 l0 -73 -101 0 c-99 0 -100 0 -93 23 24 77 111 163 170 166 7 1 14 -9 18
-21z m83 -2 c29 -25 83 -119 83 -146 0 -12 -14 -15 -67 -14 l-68 1 -6 84 c-3
46 -4 87 -2 92 8 14 31 7 60 -17z m-3557 0 c106 -1 162 -19 193 -62 l18 -24
-60 0 c-82 0 -107 -11 -121 -56 -15 -43 -8 -123 11 -136 8 -4 56 -6 107 -2
l92 6 0 -25 c0 -30 -54 -97 -77 -97 -9 0 -32 15 -53 34 -20 18 -61 41 -89 51
-49 16 -55 16 -96 1 -38 -15 -97 -68 -130 -117 -8 -13 -24 -14 -93 -6 l-84 9
6 32 c3 17 9 110 12 206 6 142 10 177 23 188 12 10 43 11 131 6 63 -4 158 -7
210 -8z m605 -58 c21 -9 25 -18 23 -42 -4 -39 -45 -62 -86 -48 -31 10 -31 31
0 74 22 32 27 33 63 16z m864 -19 c28 -11 71 -47 71 -61 0 -4 -31 -8 -70 -8
-62 0 -71 -2 -82 -22 -6 -13 -12 -47 -12 -76 -1 -72 11 -80 112 -74 44 2 82 0
85 -5 10 -16 -26 -74 -56 -89 -29 -15 -31 -15 -51 10 -25 30 -99 65 -139 66
-15 0 -40 -6 -56 -14 -26 -14 -94 -82 -102 -103 -4 -10 -144 -1 -155 9 -3 3 0
43 6 89 5 46 10 127 10 179 0 63 4 100 13 109 9 10 53 12 206 6 106 -3 205
-11 220 -16z m433 -31 c39 -32 17 -88 -34 -88 -53 1 -60 33 -17 78 23 25 29
27 51 10z m796 -19 c30 -12 62 -38 62 -51 0 -4 -26 -8 -57 -8 -82 0 -88 -6
-88 -87 l0 -68 83 -2 c46 0 86 -4 90 -7 11 -12 -13 -59 -41 -79 l-27 -21 -33
30 c-41 39 -78 54 -129 54 -38 0 -47 -6 -96 -56 l-55 -56 -66 6 c-36 4 -67 8
-68 10 -1 1 2 29 7 62 6 32 10 106 10 165 0 70 4 109 13 118 9 10 50 12 190 6
98 -3 191 -11 205 -16z m-2458 -4 c6 -8 12 -36 13 -62 l2 -48 -83 -7 c-104
-10 -122 -2 -122 52 0 62 25 80 109 80 48 0 72 -4 81 -15z m1334 -55 c5 -5 10
-29 10 -52 l1 -43 -78 -8 c-57 -6 -82 -5 -93 3 -21 19 -18 76 7 101 19 19 28
21 83 14 33 -3 65 -10 70 -15z m1580 4 c23 -9 21 -61 -4 -74 -19 -10 -70 -4
-70 9 0 13 40 71 49 71 5 0 16 -3 25 -6z m703 -37 c18 -12 33 -25 33 -29 0 -5
-22 -8 -49 -8 -67 0 -83 -17 -79 -84 l3 -51 67 0 c36 0 69 -3 73 -7 12 -11 -5
-48 -31 -64 -23 -15 -26 -15 -59 14 -68 60 -151 50 -197 -23 l-23 -36 -60 6
c-33 4 -61 8 -62 9 -1 1 3 47 8 101 6 55 9 119 6 142 -2 23 1 47 7 53 8 9 54
10 171 6 142 -6 164 -9 192 -29z m-1067 -2 c5 -3 10 -26 10 -49 l0 -43 -71 -7
c-49 -5 -75 -4 -85 5 -21 17 -17 66 7 90 18 18 29 21 75 16 29 -3 58 -8 64
-12z m1128 -101 l3 -41 -61 -7 c-33 -4 -65 -4 -70 -1 -11 7 -14 78 -3 89 4 4
34 6 68 4 l60 -3 3 -41z m-4538 -114 c27 -27 25 -46 -6 -66 -24 -17 -26 -16
-51 9 -25 25 -26 27 -9 51 20 31 39 33 66 6z m645 -30 c31 -35 0 -63 -49 -44
-16 6 -22 45 -9 57 12 13 40 7 58 -13z m777 -5 c21 -47 -31 -75 -66 -36 -14
15 -15 24 -6 40 15 30 57 28 72 -4z m570 -12 c22 -20 23 -39 2 -47 -24 -9 -54
12 -54 39 0 30 24 33 52 8z m708 2 c30 -36 -14 -71 -54 -42 -13 9 -16 20 -12
35 8 26 47 30 66 7z m535 -41 c0 -23 -25 -29 -49 -11 -16 11 -17 17 -7 36 11
20 14 21 34 8 12 -8 22 -23 22 -33z m694 8 c11 -20 -2 -42 -25 -42 -18 0 -37
28 -30 45 8 21 43 19 55 -3z m445 -8 c20 -19 20 -30 2 -37 -21 -8 -50 17 -43
37 8 20 21 20 41 0z"/>
<path d="M3866 2635 c-9 -14 -40 -38 -68 -54 -44 -26 -58 -29 -102 -24 -60 7
-92 21 -125 57 -14 14 -28 26 -33 26 -17 0 -7 -26 23 -58 53 -59 126 -76 213
-50 45 14 142 100 131 117 -10 17 -21 13 -39 -14z"/>
<path d="M4764 2629 c-43 -46 -95 -69 -154 -69 -57 0 -93 15 -129 54 -22 24
-51 35 -51 20 0 -10 61 -78 79 -89 31 -18 124 -23 173 -8 51 15 128 80 128
108 0 23 -13 18 -46 -16z"/>
<path d="M4140 2502 c0 -10 -16 -50 -35 -91 -53 -109 -52 -111 48 -108 65 2
82 6 82 17 0 12 -14 15 -60 16 -33 0 -63 1 -67 2 -4 1 9 36 29 77 33 70 37
105 13 105 -5 0 -10 -8 -10 -18z"/>
<path d="M4511 2111 c-15 -26 -102 -80 -158 -97 -103 -31 -271 -25 -347 13
-39 20 -56 2 -22 -25 34 -26 176 -47 273 -38 40 3 99 16 131 29 78 32 156 88
160 115 4 28 -23 30 -37 3z"/>
</g>
</svg>
