<?xml version="1.0" standalone="no"?>
<!DOCTYPE svg PUBLIC "-//W3C//DTD SVG 20010904//EN"
 "http://www.w3.org/TR/2001/REC-SVG-20010904/DTD/svg10.dtd">
<svg version="1.0" xmlns="http://www.w3.org/2000/svg"
 width="1729.000000pt" height="980.000000pt" viewBox="0 0 1729.000000 980.000000"
 preserveAspectRatio="xMidYMid meet">

<g transform="translate(0.000000,980.000000) scale(0.100000,-0.100000)"
fill="#000000" stroke="none">
<path d="M5440 8530 c-25 -6 -77 -26 -117 -45 -55 -27 -80 -47 -108 -85 -70
-95 -101 -248 -75 -361 23 -98 115 -250 171 -279 28 -16 54 3 67 48 18 60 14
93 -18 147 -61 102 -17 213 64 160 29 -19 25 -24 50 66 9 31 25 67 35 80 28
34 96 30 185 -10 75 -34 96 -37 129 -19 51 27 61 78 26 134 -22 37 -140 115
-217 144 -63 24 -135 31 -192 20z"/>
<path d="M5707 8160 c-63 -12 -52 -18 32 -18 64 -1 81 2 81 14 0 15 -46 17
-113 4z"/>
<path d="M5735 8104 c-19 -19 -20 -70 -1 -77 20 -8 46 24 46 55 0 31 -24 43
-45 22z"/>
<path d="M2405 8046 c-57 -18 -96 -40 -123 -69 -22 -24 -28 -25 -97 -20 -100
8 -135 -1 -188 -47 -55 -49 -69 -83 -107 -263 -36 -168 -41 -187 -86 -293 -19
-45 -37 -103 -40 -130 -4 -29 -24 -82 -50 -130 -31 -56 -44 -93 -44 -120 0
-63 9 -84 36 -84 38 0 39 -25 5 -105 -38 -90 -38 -112 -6 -173 33 -62 32 -77
-11 -141 -34 -50 -34 -52 -12 -46 51 16 86 53 103 110 16 57 49 98 75 93 16
-4 18 -44 5 -85 -4 -14 -3 -23 3 -23 19 0 43 51 53 111 13 81 48 174 140 375
88 190 107 262 116 427 5 97 7 106 18 80 14 -32 92 -123 106 -123 5 0 9 27 9
59 0 78 12 107 55 132 21 13 42 37 54 62 28 64 52 81 104 73 39 -6 45 -4 50
13 3 12 19 23 42 30 42 11 75 37 75 58 0 7 20 22 45 33 50 21 50 25 8 92 -58
94 -216 143 -338 104z m-211 -188 c-4 -13 -13 -42 -19 -65 -17 -66 -28 -64
-23 5 3 40 10 67 19 73 23 15 31 10 23 -13z"/>
<path d="M10180 8043 c-8 -3 -26 -10 -39 -15 l-24 -9 27 -28 c14 -15 23 -31
19 -36 -5 -4 -3 -5 3 -2 15 9 35 -16 71 -93 35 -73 51 -170 34 -212 -10 -26
-12 -27 -38 -16 -15 7 -64 34 -107 60 -44 27 -82 48 -85 48 -21 -1 -28 -19
-22 -60 5 -39 9 -45 28 -42 34 5 57 -38 47 -85 -4 -21 -7 -54 -5 -73 3 -40 39
-130 52 -130 11 0 59 71 59 87 0 7 5 13 10 13 6 0 10 -5 10 -11 0 -6 34 -84
76 -173 75 -157 78 -162 119 -179 23 -10 65 -41 93 -69 l51 -51 17 36 c17 36
17 38 -9 102 -33 80 -33 93 -4 97 19 3 22 10 25 50 3 39 -3 59 -31 110 -19 35
-38 80 -41 101 -4 21 -15 57 -25 81 -11 23 -38 112 -61 196 -55 203 -93 277
-157 301 -26 10 -69 11 -93 2z"/>
<path d="M5570 7782 c0 -16 46 -52 75 -57 18 -4 37 -1 48 7 16 12 14 13 -22
13 -26 0 -51 8 -70 23 -17 12 -31 19 -31 14z"/>
<path d="M2672 7733 c-18 -8 -31 -17 -29 -19 6 -7 117 20 117 28 0 14 -53 8
-88 -9z"/>
<path d="M2710 7680 c-15 -27 -3 -60 20 -60 24 0 37 44 20 65 -17 20 -27 19
-40 -5z"/>
<path d="M9955 7690 c3 -5 8 -10 11 -10 2 0 4 5 4 10 0 6 -5 10 -11 10 -5 0
-7 -4 -4 -10z"/>
<path d="M9886 7644 c-10 -25 -7 -42 10 -59 20 -20 44 -4 44 29 0 39 -42 63
-54 30z"/>
<path d="M9686 7634 c-4 -9 1 -28 9 -41 13 -20 19 -22 31 -12 22 18 14 63 -12
67 -13 2 -24 -4 -28 -14z"/>
<path d="M5134 7620 c-64 -9 -110 -24 -199 -65 -82 -37 -130 -86 -176 -177
-73 -145 -78 -175 -109 -748 -52 -940 -103 -1402 -179 -1622 l-20 -57 36 -3
36 -3 -2 -90 c-1 -49 10 -211 23 -360 47 -504 59 -719 60 -1065 1 -446 -13
-544 -120 -813 -74 -185 -106 -295 -155 -527 -48 -228 -151 -653 -243 -1003
-37 -136 -66 -252 -66 -257 0 -6 73 -10 188 -10 l189 0 15 38 c9 20 68 154
133 297 169 377 286 652 339 800 26 72 86 220 134 330 l87 200 5 -1000 c3
-550 8 -1007 13 -1015 6 -13 -110 -15 -1006 -19 l-1013 -4 -22 36 c-27 46 -58
61 -189 92 -60 14 -123 34 -140 45 -42 25 -83 82 -104 142 l-17 50 54 161 c36
107 50 163 43 168 -10 6 -361 19 -367 14 -2 -2 -9 -79 -16 -172 -9 -111 -23
-209 -42 -291 l-29 -124 -35 6 c-74 12 -142 38 -176 68 -42 37 -84 116 -86
161 0 18 23 106 51 195 29 90 51 165 49 167 -2 2 -85 7 -185 11 l-182 7 -5
-24 c-3 -13 -10 -89 -17 -169 -7 -96 -24 -204 -50 -320 -22 -96 -42 -185 -44
-197 -5 -22 -8 -23 -188 -25 -100 -2 930 -7 2288 -11 2499 -8 8646 -6 11070 3
726 3 1176 7 1000 9 -176 2 -306 6 -290 8 119 15 430 106 420 123 -3 6 0 7 8
4 16 -6 212 79 240 103 9 9 17 13 17 9 0 -4 10 -1 22 5 l21 11 -22 17 c-19 15
-20 17 -4 17 10 1 27 4 38 8 14 5 13 3 -4 -7 -18 -11 -21 -16 -10 -22 7 -5 14
-4 17 3 2 7 9 12 16 12 12 0 103 65 143 102 12 12 20 25 17 30 -3 5 0 7 7 6
13 -3 79 76 79 95 0 6 -6 2 -14 -9 -8 -10 -18 -16 -22 -11 -4 4 -2 7 4 7 28 0
9 39 -34 70 -38 27 -48 30 -56 19 -8 -11 -9 -10 -4 4 4 14 -17 28 -117 76
-113 54 -280 116 -335 124 -13 2 -28 10 -33 18 -8 10 -8 7 -4 -10 5 -15 3 -21
-3 -17 -6 3 -8 -2 -5 -12 9 -34 -102 -200 -181 -271 -16 -14 -40 -36 -54 -48
-14 -13 -29 -23 -34 -23 -5 0 -24 -11 -42 -25 -67 -51 -64 -63 -68 322 -2 192
-5 1019 -6 1838 -3 1005 -7 1494 -14 1503 -8 9 -489 12 -2342 12 l-2331 0 3
162 c2 90 -1 188 -5 218 l-8 55 -60 12 c-33 6 -61 10 -62 9 -2 -1 1 -47 7
-102 5 -54 10 -155 11 -224 l1 -125 -1158 -3 c-920 -2 -1159 0 -1166 10 -6 10
-8 10 -8 1 0 -10 -162 -13 -772 -14 -433 -1 -747 -5 -713 -10 93 -12 2461 -75
2918 -77 233 -2 376 -14 389 -34 4 -7 8 -462 8 -1010 l0 -997 -22 -12 c-16 -9
-264 -11 -977 -8 -526 1 -963 0 -971 -4 -8 -4 -206 -8 -440 -9 l-425 -3 -3
-473 -2 -472 1540 0 1541 0 244 -81 c135 -44 247 -85 251 -90 8 -13 -28 -120
-43 -126 -6 -3 -115 29 -240 71 -136 45 -245 76 -269 76 l-41 0 -28 -67 c-16
-38 -44 -101 -63 -142 l-34 -74 15 -56 c25 -87 28 -123 17 -182 -23 -119 -98
-221 -202 -273 -47 -23 -64 -26 -163 -26 -105 0 -116 2 -174 31 -127 64 -211
213 -198 354 10 106 60 203 132 255 34 25 34 26 35 102 l0 78 -1329 2 -1329 3
-33 -80 c-17 -44 -46 -109 -63 -145 l-31 -65 18 -55 c53 -154 -6 -338 -136
-425 -28 -19 -57 -35 -64 -35 -7 0 -13 -4 -13 -10 0 -7 -145 -10 -416 -10
l-417 0 7 123 c4 67 10 147 14 177 l7 55 146 3 147 3 6 47 c9 64 57 158 107
209 22 24 45 43 50 43 5 0 9 39 9 86 0 47 -3 83 -8 80 -16 -9 -73 24 -82 49
-6 16 -10 233 -10 566 l0 541 29 29 c30 29 55 34 184 31 23 -1 27 3 22 16 -4
9 -26 71 -50 137 -42 117 -680 1852 -753 2050 l-38 100 -228 5 c-225 5 -228 5
-247 29 -26 31 -24 57 6 86 l24 25 248 0 c189 -1 254 -4 272 -14 20 -11 38
-51 92 -197 l67 -184 53 -7 c30 -3 130 -6 222 -7 l169 -1 -7 43 c-10 63 -63
351 -71 381 -6 24 -4 26 30 26 44 0 43 -12 20 253 -9 104 -14 190 -11 193 3 3
39 1 80 -5 66 -9 108 -27 367 -156 162 -80 295 -143 298 -140 11 11 51 200 43
208 -4 4 -50 12 -102 17 -52 6 -140 17 -196 26 -85 14 -103 20 -103 34 0 10
-5 64 -11 121 -7 74 -7 104 1 109 7 4 -41 52 -118 118 -167 143 -241 225 -290
320 l-41 77 -26 255 c-15 140 -31 352 -35 470 -8 232 -19 293 -71 408 -37 83
-89 153 -137 184 -53 35 -246 84 -382 97 -63 6 -155 20 -205 31 -95 21 -119
22 -201 10z m10871 -6420 c3 -6 -1 -7 -9 -4 -18 7 -21 14 -7 14 6 0 13 -4 16
-10z m40 -10 c-3 -5 -12 -10 -18 -10 -7 0 -6 4 3 10 19 12 23 12 15 0z m-58
-6 c-3 -3 -12 -4 -19 -1 -8 3 -5 6 6 6 11 1 17 -2 13 -5z m198 -44 c3 -6 -1
-7 -9 -4 -18 7 -21 14 -7 14 6 0 13 -4 16 -10z m224 -121 c13 -11 22 -21 20
-23 -2 -3 -17 7 -32 20 -15 13 -24 24 -20 24 4 -1 19 -10 32 -21z m-34 -7 c-3
-3 -11 0 -18 7 -9 10 -8 11 6 5 10 -3 15 -9 12 -12z m2 -28 c-3 -3 -12 -4 -19
-1 -8 3 -5 6 6 6 11 1 17 -2 13 -5z m-150 -10 c-3 -3 -12 -4 -19 -1 -8 3 -5 6
6 6 11 1 17 -2 13 -5z m20 -18 c0 -8 -6 -12 -15 -9 -11 5 -11 7 0 14 7 5 13 9
14 9 0 0 1 -6 1 -14z m-273 -7 c-2 -3 14 -16 36 -28 l39 -22 153 27 c226 40
215 39 227 16 8 -16 7 -23 -7 -33 -15 -12 -15 -12 -5 1 25 32 1 38 -72 18
-200 -55 -443 -104 -618 -124 -48 -5 -57 -9 -52 -22 3 -9 3 -13 -1 -10 -8 9
-26 -10 -41 -44 -7 -16 -17 -28 -23 -28 -6 0 -8 -5 -4 -12 4 -7 3 -8 -4 -4 -6
4 -9 12 -7 19 6 16 -76 77 -103 77 -16 0 -22 6 -22 24 0 22 5 24 103 35 209
23 277 34 277 42 0 5 -10 10 -22 10 -18 1 -19 2 -5 6 10 3 25 -1 34 -8 13 -11
17 -10 29 6 31 46 47 60 69 60 13 0 21 -3 19 -6z m-90 -28 c3 -5 0 -14 -8 -20
-10 -9 -15 -8 -19 3 -4 11 -1 13 10 9 11 -4 14 -2 9 5 -4 7 -5 12 -2 12 3 0 7
-4 10 -9z m-201 -28 c-7 -2 -19 -2 -25 0 -7 3 -2 5 12 5 14 0 19 -2 13 -5z
m577 -13 c-34 -11 -60 -11 -35 0 11 5 29 8 40 8 16 0 15 -2 -5 -8z m90 6 c0
-3 -4 -8 -10 -11 -5 -3 -10 -1 -10 4 0 6 5 11 10 11 6 0 10 -2 10 -4z m-637
-13 c-7 -2 -19 -2 -25 0 -7 3 -2 5 12 5 14 0 19 -2 13 -5z m592 -43 c-3 -5
-12 -10 -18 -10 -7 0 -6 4 3 10 19 12 23 12 15 0z m-408 -26 c-3 -3 -12 -4
-19 -1 -8 3 -5 6 6 6 11 1 17 -2 13 -5z m-64 -21 c-7 -2 -19 -2 -25 0 -7 3 -2
5 12 5 14 0 19 -2 13 -5z m-53 -7 c0 -2 -7 -7 -16 -10 -8 -3 -12 -2 -9 4 6 10
25 14 25 6z m217 -142 c-3 -3 -12 -4 -19 -1 -8 3 -5 6 6 6 11 1 17 -2 13 -5z
m-14194 -112 c8 -9 20 -29 26 -45 l11 -27 -61 0 c-58 0 -60 1 -54 23 11 34 34
67 49 67 7 0 20 -8 29 -18z m654 10 c7 -4 19 -24 28 -45 l15 -37 -32 0 c-28 1
-36 6 -49 35 -21 44 1 71 38 47z"/>
<path d="M9775 7516 c-20 -70 -17 -90 15 -93 25 -3 25 -3 2 7 -24 10 -24 11
-1 99 14 58 1 47 -16 -13z"/>
<path d="M2583 7363 c4 -6 20 -16 37 -23 24 -10 36 -10 60 0 17 7 30 17 30 22
0 5 -10 4 -21 -3 -21 -11 -54 -8 -93 7 -12 5 -17 4 -13 -3z"/>
<path d="M9896 7339 c-10 -6 -41 -9 -68 -7 -40 4 -47 3 -36 -8 25 -24 77 -21
109 6 26 21 24 25 -5 9z"/>
<path d="M9763 7110 c-26 -11 -27 -14 -12 -42 8 -15 8 -23 -1 -32 -8 -8 -9 -6
-4 9 7 20 7 20 -14 1 -12 -11 -22 -15 -22 -11 0 5 -18 -8 -40 -30 -21 -21 -36
-43 -33 -48 3 -6 2 -7 -4 -4 -12 8 -106 -87 -96 -97 5 -4 2 -6 -6 -4 -7 2 -15
-1 -17 -7 -2 -6 12 -10 33 -9 31 1 38 5 38 22 0 11 4 24 8 28 4 5 5 1 1 -9 -3
-9 -2 -17 4 -17 15 0 34 28 27 39 -3 7 0 8 9 5 15 -6 21 6 17 29 -1 5 2 6 7 3
12 -7 54 33 47 44 -3 5 0 12 6 16 8 5 9 3 4 -7 -5 -8 2 -5 14 6 20 17 71 104
71 120 0 7 -11 5 -37 -5z m-152 -183 c-6 -8 -7 -18 -3 -22 4 -5 1 -5 -6 -1
-10 6 -10 11 -1 22 6 8 14 14 16 14 3 0 0 -6 -6 -13z"/>
<path d="M10200 7111 c0 -5 -46 -58 -101 -118 -137 -146 -156 -177 -95 -154
19 8 26 7 26 -1 0 -29 58 46 64 83 9 58 50 116 106 151 27 17 47 35 44 39 -7
12 -44 11 -44 0z m-132 -222 c3 -12 2 -12 -6 0 -9 12 -13 12 -27 -2 -23 -24
-32 -21 -10 3 20 22 37 22 43 -1z"/>
<path d="M9720 7065 c-7 -9 -11 -18 -8 -20 3 -3 11 1 18 10 7 9 11 18 8 20 -3
3 -11 -1 -18 -10z"/>
<path d="M10580 6855 c0 -8 4 -15 10 -15 5 0 7 7 4 15 -4 8 -8 15 -10 15 -2 0
-4 -7 -4 -15z"/>
<path d="M7647 6135 c8 -292 23 -547 41 -685 28 -205 78 -431 100 -448 13 -10
70 -12 244 -10 124 2 230 6 234 10 9 10 74 301 80 363 2 28 13 118 24 200 12
93 21 248 25 408 l6 257 -145 0 c-86 0 -147 -4 -151 -10 -8 -13 -158 -13 -170
-1 -6 6 -73 11 -150 13 l-140 3 2 -100z m673 -165 l0 -210 -300 0 -300 0 0
210 0 210 300 0 300 0 0 -210z m30 -310 l0 -30 -87 -2 c-324 -6 -559 -3 -565
6 -4 6 -8 21 -8 34 l0 22 330 0 330 0 0 -30z m-440 -150 l0 -50 -49 0 -49 0
-4 50 -3 50 53 0 52 0 0 -50z m162 0 l3 -50 -52 0 -53 0 0 50 0 50 49 0 49 0
4 -50z m168 0 l0 -50 -50 0 -50 0 0 50 0 50 50 0 50 0 0 -50z m-332 -162 c-3
-51 -4 -53 -33 -55 -60 -3 -70 4 -69 47 1 22 2 45 3 50 1 6 24 10 52 10 l50 0
-3 -52z m165 -3 c0 -47 -2 -50 -28 -53 -15 -2 -38 -1 -51 2 -21 6 -24 12 -24
57 l0 50 51 -3 52 -3 0 -50z m165 3 l-3 -53 -47 0 -48 -1 0 53 0 53 51 0 50 0
-3 -52z m-328 -164 l0 -55 -52 3 -52 3 -1 45 c-1 25 0 48 2 53 2 4 26 7 54 7
l49 0 0 -56z m161 52 c2 -2 2 -27 1 -55 l-4 -51 -49 0 -49 0 0 55 0 55 48 0
c27 0 51 -2 53 -4z m169 -51 l0 -55 -49 0 c-48 0 -49 1 -52 33 -8 69 -3 77 52
77 l49 0 0 -55z m-418 -120 c-2 -14 -6 -25 -8 -25 -2 0 -4 11 -4 25 0 14 4 25
9 25 4 0 6 -11 3 -25z m78 21 c0 -2 -7 -7 -16 -10 -8 -3 -12 -2 -9 4 6 10 25
14 25 6z m170 -26 c0 -29 -1 -30 -50 -30 -49 0 -50 1 -50 30 0 29 1 30 50 30
49 0 50 -1 50 -30z m170 0 c0 -29 -1 -30 -50 -30 -49 0 -50 1 -50 30 0 29 1
30 50 30 49 0 50 -1 50 -30z"/>
<path d="M2530 6131 c0 -6 4 -13 10 -16 6 -3 7 1 4 9 -7 18 -14 21 -14 7z"/>
<path d="M2586 6007 c3 -10 9 -15 12 -12 3 3 0 11 -7 18 -10 9 -11 8 -5 -6z"/>
<path d="M10229 5723 c-13 -16 -12 -17 4 -4 9 7 17 15 17 17 0 8 -8 3 -21 -13z"/>
<path d="M2557 5569 c7 -9 10 -19 6 -23 -4 -4 1 -4 10 0 10 3 17 7 15 8 -2 1
-12 8 -23 16 -18 14 -19 13 -8 -1z"/>
<path d="M8420 5336 c0 -2 9 -6 20 -9 11 -3 18 -1 14 4 -5 9 -34 13 -34 5z"/>
<path d="M9355 5260 c-3 -6 1 -7 9 -4 18 7 21 14 7 14 -6 0 -13 -4 -16 -10z"/>
<path d="M2875 5080 c3 -36 14 -177 25 -315 29 -362 45 -564 95 -1175 63 -772
96 -1143 100 -1148 4 -4 23 106 35 202 5 42 14 177 20 299 29 598 -57 1403
-214 1987 -56 209 -68 238 -61 150z"/>
<path d="M8363 4605 c0 -8 4 -12 9 -9 5 3 6 10 3 15 -9 13 -12 11 -12 -6z"/>
<path d="M7661 4564 c0 -11 3 -14 6 -6 3 7 2 16 -1 19 -3 4 -6 -2 -5 -13z"/>
<path d="M6388 4533 c12 -2 30 -2 40 0 9 3 -1 5 -23 4 -22 0 -30 -2 -17 -4z"/>
<path d="M5892 4469 c2 -8 24 -69 48 -136 l44 -123 153 0 153 0 0 130 0 130
-78 0 c-44 0 -134 3 -202 7 -104 5 -123 4 -118 -8z"/>
<path d="M6340 4341 l0 -131 149 0 150 0 3 28 c2 15 2 68 0 119 l-3 92 -97 5
c-53 3 -121 8 -149 11 l-53 7 0 -131z"/>
<path d="M6690 4328 l0 -118 155 0 155 0 0 119 0 118 -155 -1 -155 -1 0 -117z"/>
<path d="M7042 4334 l3 -119 153 -3 152 -3 0 116 0 115 -48 0 c-27 0 -97 3
-156 7 l-107 6 3 -119z"/>
<path d="M7400 4325 l0 -116 152 3 152 3 1 106 0 106 -110 7 c-60 3 -129 6
-152 6 l-43 0 0 -115z"/>
<path d="M7752 4323 l3 -108 153 -3 152 -3 0 104 0 104 -92 7 c-50 3 -120 6
-155 6 l-64 0 3 -107z"/>
<path d="M8110 4315 l0 -105 149 0 150 0 3 99 3 99 -74 6 c-41 3 -109 6 -153
6 l-78 0 0 -105z"/>
<path d="M8460 4310 l0 -100 155 0 155 0 0 94 0 93 -46 7 c-26 3 -96 6 -155 6
l-109 0 0 -100z"/>
<path d="M8812 4308 l3 -93 153 -3 152 -3 0 90 c0 107 11 101 -178 101 l-133
0 3 -92z"/>
<path d="M9170 4301 l0 -91 155 0 156 0 -3 88 -3 87 -152 3 -153 3 0 -90z"/>
<path d="M9520 4296 l0 -86 155 0 156 0 -3 78 c-3 69 -5 77 -23 78 -11 1 -80
4 -152 8 l-133 8 0 -86z"/>
<path d="M9958 4363 l-78 -4 0 -74 0 -75 110 0 110 0 0 80 0 80 -32 -2 c-18
-1 -68 -4 -110 -5z"/>
<path d="M6016 4141 c-3 -5 158 -452 183 -508 9 -18 19 -23 51 -23 l40 0 0
265 0 265 -112 1 c-62 0 -123 2 -136 3 -13 2 -24 0 -26 -3z"/>
<path d="M6340 3879 l0 -266 148 5 c81 2 148 5 149 6 1 1 3 118 3 260 l1 257
-150 2 -151 2 0 -266z"/>
<path d="M7072 4142 l-33 -3 3 -262 3 -262 153 -3 152 -3 0 265 0 265 -122 3
c-68 2 -138 2 -156 0z"/>
<path d="M8110 3878 l0 -268 150 0 149 0 3 265 3 264 -153 3 -152 3 0 -267z"/>
<path d="M8817 4144 c-1 -1 -1 -120 1 -263 l3 -261 149 0 150 0 0 260 0 260
-127 1 c-71 0 -138 2 -151 3 -12 2 -23 2 -25 0z"/>
<path d="M9983 4142 l-103 -3 0 -259 0 -260 110 0 110 0 0 259 c0 143 -3 261
-7 263 -5 2 -54 2 -110 0z"/>
<path d="M6690 3881 l0 -259 144 -7 c80 -4 149 -4 155 0 7 4 11 93 11 266 l0
259 -155 0 -155 0 0 -259z"/>
<path d="M7400 3875 l0 -266 153 3 152 3 3 263 2 262 -155 0 -155 0 0 -265z"/>
<path d="M7752 3878 l3 -263 153 -3 152 -3 0 266 0 265 -155 0 -155 0 2 -262z"/>
<path d="M8460 3874 l0 -267 77 7 c42 3 111 6 155 6 l78 0 0 260 0 260 -155 0
-155 0 0 -266z"/>
<path d="M9170 3880 l0 -260 155 0 155 0 0 260 0 260 -155 0 -155 0 0 -260z"/>
<path d="M9520 3880 l0 -260 155 0 155 0 0 260 0 260 -155 0 -155 0 0 -260z"/>
<path d="M6230 3546 c0 -7 52 -141 56 -145 2 -2 4 30 4 72 l0 77 -30 0 c-16 0
-30 -2 -30 -4z"/>
<path d="M6340 3398 l0 -153 41 -112 42 -113 109 0 108 0 0 265 0 265 -150 0
-150 0 0 -152z"/>
<path d="M6697 3543 c-4 -3 -7 -123 -7 -265 l0 -258 155 0 155 0 0 265 0 265
-148 0 c-82 0 -152 -3 -155 -7z"/>
<path d="M7040 3443 c0 -60 3 -179 7 -265 l6 -158 149 0 148 0 0 265 0 265
-155 0 -155 0 0 -107z"/>
<path d="M7400 3285 l0 -265 153 0 152 0 0 263 0 262 -152 3 -153 3 0 -266z"/>
<path d="M7750 3285 l0 -265 155 0 155 0 0 265 0 265 -155 0 -155 0 0 -265z"/>
<path d="M8110 3285 l0 -265 150 0 150 0 0 255 c0 140 0 258 0 263 0 4 -67 8
-150 10 l-150 3 0 -266z"/>
<path d="M8460 3285 l0 -265 155 0 155 0 -2 263 -3 262 -152 3 -153 3 0 -266z"/>
<path d="M8820 3285 l0 -265 150 0 150 0 0 265 0 265 -150 0 -150 0 0 -265z"/>
<path d="M9170 3285 l0 -265 155 0 156 0 -3 263 -3 262 -152 3 -153 3 0 -266z"/>
<path d="M9527 3544 c-4 -4 -7 -124 -7 -266 l0 -258 155 0 155 0 -2 263 -3
262 -146 3 c-80 1 -148 -1 -152 -4z"/>
<path d="M9880 3285 l0 -265 110 0 110 0 -2 263 -3 262 -107 3 -108 3 0 -266z"/>
<path d="M6481 2868 c17 -46 49 -131 70 -190 53 -148 66 -178 78 -178 8 0 11
74 11 225 l0 225 -95 0 -94 0 30 -82z"/>
<path d="M6690 2728 l0 -223 155 -3 155 -3 0 225 0 226 -155 0 -155 0 0 -222z"/>
<path d="M7045 2818 c-3 -73 -5 -173 -3 -223 l3 -90 139 -3 c82 -1 145 -7 153
-14 11 -9 13 32 13 226 l0 236 -149 0 -149 0 -7 -132z"/>
<path d="M7400 2715 l0 -235 156 0 156 0 -4 233 -4 232 -152 3 -152 3 0 -236z"/>
<path d="M7750 2715 l0 -235 155 0 155 0 0 235 0 235 -155 0 -155 0 0 -235z"/>
<path d="M8110 2715 l0 -235 43 0 c24 0 48 -5 53 -10 12 -12 204 -9 204 3 0 4
0 113 0 242 l0 235 -150 0 -150 0 0 -235z"/>
<path d="M8460 2705 l0 -246 153 3 152 3 3 243 2 242 -155 0 -155 0 0 -245z"/>
<path d="M8820 2705 l0 -245 150 0 150 0 0 245 0 245 -150 0 -150 0 0 -245z"/>
<path d="M9170 2705 l0 -246 153 3 152 3 0 240 0 240 -152 3 -153 3 0 -246z"/>
<path d="M9522 2708 l3 -243 153 -3 152 -3 0 246 0 245 -155 0 -155 0 2 -242z"/>
<path d="M9880 2705 l0 -245 110 0 110 0 0 245 0 245 -110 0 -110 0 0 -245z"/>
<path d="M6608 2353 l-228 -3 0 -460 0 -460 405 0 405 0 -3 463 -2 462 -175 0
c-96 0 -277 -1 -402 -2z"/>
<path d="M15710 1990 c-8 -5 -10 -10 -5 -10 6 0 17 5 25 10 8 5 11 10 5 10 -5
0 -17 -5 -25 -10z"/>
<path d="M15660 1970 c-9 -6 -10 -10 -3 -10 6 0 15 5 18 10 8 12 4 12 -15 0z"/>
<path d="M15576 1924 c-11 -8 -16 -14 -10 -14 13 0 39 18 34 24 -3 2 -14 -2
-24 -10z"/>
<path d="M15871 1916 c-17 -18 -19 -26 -10 -31 7 -5 10 -4 5 3 -3 6 6 20 20
31 15 12 22 21 17 21 -5 0 -20 -11 -32 -24z"/>
<path d="M15786 1822 l-19 -27 26 24 c28 26 32 31 20 31 -5 0 -17 -13 -27 -28z"/>
<path d="M15704 1808 l-29 -33 33 29 c30 28 37 36 29 36 -2 0 -16 -15 -33 -32z"/>
<path d="M15983 1765 c0 -22 2 -30 4 -17 2 12 2 30 0 40 -3 9 -5 -1 -4 -23z"/>
<path d="M15599 1693 c-13 -16 -12 -17 4 -4 16 13 21 21 13 21 -2 0 -10 -8
-17 -17z"/>
<path d="M15961 1604 c0 -11 3 -14 6 -6 3 7 2 16 -1 19 -3 4 -6 -2 -5 -13z"/>
<path d="M15622 1495 c0 -16 2 -22 5 -12 2 9 2 23 0 30 -3 6 -5 -1 -5 -18z"/>
</g>
</svg>
